# xmcd CD database file
#
# Track frame offsets:
#	150
#	26776
#	56921
#	80647
#	103910
#	125725
#	155462
#	186010
#	209147
#	233713
#
# Disc length: 3497 seconds
#
# Revision: 0
# Processed by: cddbd v1.5.1PL2 Copyright (c) Steve Scherf et al.
# Submitted via: CDex 1.51
#
DISCID=940da70a
DTITLE=James Spaulding - Escaped
DYEAR=1999
DGENRE=Jazz
TTITLE0=Escapade
TTITLE1=Cheesecake
TTITLE2=Warm Valley
TTITLE3=Madeline
TTITLE4=Just One Of Those Things
TTITLE5=Grant's Tune
TTITLE6=High Modes
TTITLE7=The Break Through
TTITLE8=It Could Happen To You
TTITLE9=La Mesha
EXTD=YEAR: 1999
EXTT0=
EXTT1=
EXTT2=
EXTT3=
EXTT4=
EXTT5=
EXTT6=
EXTT7=
EXTT8=
EXTT9=
PLAYORDER=
